<?xml version="1.0" encoding="UTF-8" standalone="no"?>
<!-- Created with Inkscape (http://www.inkscape.org/) -->

<svg
   width="1000"
   height="1000"
   viewBox="0 0 264.58333 264.58333"
   version="1.1"
   id="svg412"
   inkscape:version="1.2.2 (732a01da63, 2022-12-09)"
   sodipodi:docname="SignedVelocityLogo.svg"
   inkscape:export-filename="SignedVelocityLogo.png"
   inkscape:export-xdpi="96"
   inkscape:export-ydpi="96"
   xmlns:inkscape="http://www.inkscape.org/namespaces/inkscape"
   xmlns:sodipodi="http://sodipodi.sourceforge.net/DTD/sodipodi-0.dtd"
   xmlns:xlink="http://www.w3.org/1999/xlink"
   xmlns="http://www.w3.org/2000/svg"
   xmlns:svg="http://www.w3.org/2000/svg">
  <sodipodi:namedview
     id="namedview414"
     pagecolor="#ffffff"
     bordercolor="#000000"
     borderopacity="0.25"
     inkscape:showpageshadow="2"
     inkscape:pageopacity="0.0"
     inkscape:pagecheckerboard="0"
     inkscape:deskcolor="#d1d1d1"
     inkscape:document-units="mm"
     showgrid="false"
     inkscape:lockguides="true"
     inkscape:zoom="0.32567287"
     inkscape:cx="506.64337"
     inkscape:cy="402.24413"
     inkscape:window-width="1366"
     inkscape:window-height="697"
     inkscape:window-x="-8"
     inkscape:window-y="-8"
     inkscape:window-maximized="1"
     inkscape:current-layer="layer1">
    <sodipodi:guide
       position="0,264.58333"
       orientation="0,1000"
       inkscape:locked="true"
       id="guide533" />
    <sodipodi:guide
       position="264.58333,264.58333"
       orientation="1000,0"
       inkscape:locked="true"
       id="guide535" />
    <sodipodi:guide
       position="264.58333,0"
       orientation="0,-1000"
       inkscape:locked="true"
       id="guide537" />
    <sodipodi:guide
       position="0,0"
       orientation="-1000,0"
       inkscape:locked="true"
       id="guide539" />
  </sodipodi:namedview>
  <defs
     id="defs409">
    <linearGradient
       inkscape:collect="always"
       xlink:href="#linearGradient991"
       id="linearGradient993"
       x1="-38.339001"
       y1="3.3454375"
       x2="79.410538"
       y2="59.600441"
       gradientUnits="userSpaceOnUse"
       gradientTransform="matrix(3.7404127,0,0,3.7404127,7.3102618,7.8920122)" />
    <linearGradient
       inkscape:collect="always"
       id="linearGradient991">
      <stop
         style="stop-color:#506dee;stop-opacity:1;"
         offset="0"
         id="stop987" />
      <stop
         style="stop-color:#6447ac;stop-opacity:1;"
         offset="1"
         id="stop989" />
    </linearGradient>
    <linearGradient
       inkscape:collect="always"
       xlink:href="#linearGradient4229"
       id="linearGradient4231"
       x1="-41.743885"
       y1="2.4850929"
       x2="52.664715"
       y2="62.80732"
       gradientUnits="userSpaceOnUse"
       gradientTransform="matrix(-3.5522241,2.9201643,-2.5291861,-3.7094881,317.32009,129.98943)" />
    <linearGradient
       inkscape:collect="always"
       id="linearGradient4229">
      <stop
         style="stop-color:#5b9bff;stop-opacity:0.25;"
         offset="0"
         id="stop4225" />
      <stop
         style="stop-color:#ff48d9;stop-opacity:0.1;"
         offset="1"
         id="stop4227" />
    </linearGradient>
    <linearGradient
       inkscape:collect="always"
       xlink:href="#linearGradient4678"
       id="linearGradient4660"
       gradientUnits="userSpaceOnUse"
       gradientTransform="matrix(1.920163,1.8743242,-1.8743242,1.920163,166.97374,503.70099)"
       x1="-169.93851"
       y1="28.51112"
       x2="-139.73761"
       y2="-2.8686249" />
    <linearGradient
       inkscape:collect="always"
       id="linearGradient4678">
      <stop
         style="stop-color:#706d30;stop-opacity:1;"
         offset="0"
         id="stop4674" />
      <stop
         style="stop-color:#2bf7ff;stop-opacity:1;"
         offset="1"
         id="stop4676" />
    </linearGradient>
    <radialGradient
       inkscape:collect="always"
       xlink:href="#linearGradient4672"
       id="radialGradient4548-5"
       cx="-153.85703"
       cy="48.127365"
       fx="-153.85703"
       fy="48.127365"
       r="9.5423098"
       gradientTransform="matrix(2.364476,-2.4471995,1.6669858,1.6106361,70.253025,-151.69093)"
       gradientUnits="userSpaceOnUse" />
    <linearGradient
       inkscape:collect="always"
       id="linearGradient4672">
      <stop
         style="stop-color:#475142;stop-opacity:1;"
         offset="0"
         id="stop4668" />
      <stop
         style="stop-color:#ffffff;stop-opacity:0.63559324;"
         offset="1"
         id="stop4670" />
    </linearGradient>
  </defs>
  <g
     inkscape:label="Capa 1"
     inkscape:groupmode="layer"
     id="layer1">
    <rect
       style="fill:url(#linearGradient993);fill-opacity:1;stroke-width:13.155;stroke-linecap:round;stroke-linejoin:round;stroke-miterlimit:6.3;paint-order:stroke fill markers"
       id="rect300"
       width="283.6347"
       height="269.66782"
       x="-7.7309494"
       y="-2.3145449" />
    <path
       class="b"
       d="M -27.236555,87.669139 256.9966,124.56058 a 15.821437,17.361708 15.601516 1 1 -5.28793,34.26779 L 81.875463,136.78524 a 15.837532,17.379369 15.601498 0 0 -5.29063,34.2852 l 112.241477,14.56818 a 15.821444,17.361715 15.60151 1 1 -5.28795,34.2678 L 13.481335,197.83421 A 15.837532,17.379369 15.601498 0 0 8.1907055,232.11944 L 360.05653,277.78912 318.88965,191.35448 a 19.088732,20.947084 15.601498 0 1 2.13424,-22.39159 L 410.21542,43.105204 a 18.911687,20.752803 15.601509 0 1 2.77637,-3.195513 L 73.565261,-4.1454697 A 15.82144,17.361711 15.601514 1 0 68.277296,30.122316 l 85.588144,11.108738 a 15.837532,17.379369 15.601498 1 1 -5.29063,34.285205 L -21.945911,53.383883 a 15.837532,17.379369 15.601498 1 0 -5.290644,34.285256 z"
       id="path913"
       fill="#00a1c2"
       fill-opacity="1"
       style="fill:url(#linearGradient4231);fill-opacity:1;stroke-width:1.68602" />
    <path
       id="path4540-3"
       style="fill:url(#linearGradient4660);stroke-width:9.43717;stroke-linecap:round;stroke-linejoin:round;stroke-miterlimit:6.3;paint-order:stroke fill markers"
       inkscape:label="path4540"
       d="m -130.69049,249.224 c -22.49968,23.04993 -45.26207,40.11079 -60.3496,46.27719 -5.04869,-5.1345 -5.06964,-5.35148 -7.8617,-8.07688 -2.82424,-2.7568 -2.00555,-0.9765 -7.38199,-7.15598 7.22083,-14.64982 22.3337,-38.27229 44.70726,-61.19303 33.45002,-34.26808 67.480695,-55.29881 76.009615,-46.97346 8.52891,8.32535 -11.67361,42.85411 -45.123585,77.12216 z"
       sodipodi:nodetypes="scccsss" />
    <path
       style="fill:url(#radialGradient4548-5);fill-opacity:1;stroke-width:9.20573;stroke-linecap:round;stroke-linejoin:round;stroke-miterlimit:6.3;paint-order:stroke fill markers"
       d="m -232.76386,284.80296 c 0,0 -7.45631,31.52934 -10.17154,42.17549 l 21.71037,-21.52402 c 0,0 4.64092,-21.84009 15.3798,-12.03478 10.10974,9.23087 -11.81544,15.61489 -11.81544,15.61489 l -21.75732,21.5255 42.9204,-11.39571 6.09123,-23.64761 -16.13943,-15.65102 z"
       id="path4413-1"
       sodipodi:nodetypes="cccscccccc" />
    <g
       id="g9545"
       transform="matrix(1.2225133,0,0,1.2225133,-25.446774,-40.713165)">
      <path
         id="path4540-3-4"
         style="fill:#ffffff;fill-opacity:1;stroke-width:9.72709;stroke-linecap:round;stroke-linejoin:round;stroke-miterlimit:6.3;paint-order:stroke fill markers"
         inkscape:label="path4540"
         d="m 162.96207,140.56753 c -21.10409,21.75848 -43.04325,37.28961 -58.06875,42.25867 -5.704931,-5.79191 -5.747021,-6.01858 -8.891281,-9.10346 -3.180509,-3.1204 -2.166249,-1.19972 -8.308497,-8.10464 6.090791,-14.49402 19.500628,-37.53935 40.486418,-59.17588 31.37522,-32.348097 64.5961,-50.93218 74.20089,-41.508718 9.60479,9.423461 -8.04361,43.285968 -39.41878,75.634028 z"
         sodipodi:nodetypes="scccsss" />
      <path
         style="fill:#ffffff;fill-opacity:1;stroke-width:9.20573;stroke-linecap:round;stroke-linejoin:round;stroke-miterlimit:6.3;paint-order:stroke fill markers"
         d="m 63.102854,170.07249 c 0,0 -7.45631,31.52934 -10.17154,42.17549 l 21.71037,-21.52402 c 0,0 4.64092,-21.84009 15.3798,-12.03478 10.109736,9.23087 -11.81544,15.61489 -11.81544,15.61489 l -21.75732,21.5255 42.9204,-11.39571 6.091226,-23.64761 -16.139426,-15.65102 z"
         id="path4413-1-5"
         sodipodi:nodetypes="cccscccccc" />
    </g>
    <circle
       style="fill:none;fill-opacity:1;stroke:#b80018;stroke-width:14.8448;stroke-linecap:round;stroke-linejoin:round;stroke-miterlimit:6.3;stroke-dasharray:none;stroke-opacity:1;paint-order:stroke fill markers"
       id="path4734"
       cx="-357.63034"
       cy="124.66376"
       r="97.559509" />
    <rect
       style="fill:none;fill-opacity:1;stroke:#b80018;stroke-width:14.9617;stroke-linecap:round;stroke-linejoin:round;stroke-miterlimit:6.3;stroke-dasharray:none;stroke-opacity:1;paint-order:stroke fill markers"
       id="rect4849"
       width="243.76302"
       height="8.9161024"
       x="-238.20323"
       y="343.40152"
       transform="rotate(45)"
       ry="4.4580512"
       rx="1.5193942" />
    <rect
       style="fill:none;fill-opacity:1;stroke:#51bb18;stroke-width:14.9617;stroke-linecap:round;stroke-linejoin:round;stroke-miterlimit:6.3;stroke-dasharray:none;stroke-opacity:1;paint-order:stroke fill markers"
       id="rect4849-9"
       width="243.76302"
       height="8.9161024"
       x="-340.34744"
       y="-97.014519"
       transform="matrix(0.66554409,0.74635854,0.74635854,-0.66554409,0,0)"
       ry="4.4580512"
       rx="1.5193942" />
  </g>
</svg>
