<?xml version="1.0" encoding="UTF-8" standalone="no"?>
<!-- Created with Inkscape (http://www.inkscape.org/) -->

<svg
   width="250"
   height="250"
   viewBox="0 0 66.145832 66.145833"
   version="1.1"
   id="svg5"
   inkscape:version="1.2.2 (732a01da63, 2022-12-09)"
   sodipodi:docname="SimpleJumpPadsLogo.svg"
   inkscape:export-filename="SimpleJumpPadsLogo.png"
   inkscape:export-xdpi="96"
   inkscape:export-ydpi="96"
   xmlns:inkscape="http://www.inkscape.org/namespaces/inkscape"
   xmlns:sodipodi="http://sodipodi.sourceforge.net/DTD/sodipodi-0.dtd"
   xmlns:xlink="http://www.w3.org/1999/xlink"
   xmlns="http://www.w3.org/2000/svg"
   xmlns:svg="http://www.w3.org/2000/svg">
  <sodipodi:namedview
     id="namedview7"
     pagecolor="#ffffff"
     bordercolor="#000000"
     borderopacity="0.25"
     inkscape:showpageshadow="2"
     inkscape:pageopacity="0.0"
     inkscape:pagecheckerboard="0"
     inkscape:deskcolor="#d1d1d1"
     inkscape:document-units="mm"
     showgrid="false"
     inkscape:lockguides="true"
     inkscape:zoom="1.8422839"
     inkscape:cx="75.449824"
     inkscape:cy="165.01257"
     inkscape:window-width="1366"
     inkscape:window-height="697"
     inkscape:window-x="-8"
     inkscape:window-y="-8"
     inkscape:window-maximized="1"
     inkscape:current-layer="layer1">
    <sodipodi:guide
       position="0,66.145832"
       orientation="0,250"
       inkscape:locked="true"
       id="guide132" />
    <sodipodi:guide
       position="66.145832,66.145832"
       orientation="250,0"
       inkscape:locked="true"
       id="guide134" />
    <sodipodi:guide
       position="66.145832,0"
       orientation="0,-250"
       inkscape:locked="true"
       id="guide136" />
    <sodipodi:guide
       position="0,0"
       orientation="-250,0"
       inkscape:locked="true"
       id="guide138" />
  </sodipodi:namedview>
  <defs
     id="defs2">
    <linearGradient
       inkscape:collect="always"
       id="linearGradient6643">
      <stop
         style="stop-color:#ff7a0f;stop-opacity:1;"
         offset="0"
         id="stop6639" />
      <stop
         style="stop-color:#ffff39;stop-opacity:1;"
         offset="1"
         id="stop6641" />
    </linearGradient>
    <linearGradient
       inkscape:collect="always"
       xlink:href="#linearGradient6643"
       id="linearGradient6645"
       x1="-11.489362"
       y1="58.882977"
       x2="54"
       y2="1.7234042"
       gradientUnits="userSpaceOnUse"
       gradientTransform="translate(-0.14361702,1.1489362)" />
  </defs>
  <g
     inkscape:label="Capa 1"
     inkscape:groupmode="layer"
     id="layer1">
    <rect
       style="fill:url(#linearGradient6645);fill-opacity:1;stroke:#ffc6fb;stroke-width:2.5;stroke-linecap:round;stroke-linejoin:round;stroke-opacity:0.1777;paint-order:fill markers stroke"
       id="rect242"
       width="75.148903"
       height="75.555107"
       x="-4.6119304"
       y="-2.7100613"
       rx="0.28849515"
       ry="0.84647298" />
  </g>
  <g
     inkscape:groupmode="layer"
     id="layer3"
     inkscape:label="Decorations">
    <path
       style="display:inline;fill:none;fill-opacity:1;stroke:#fffffb;stroke-width:0.799999;stroke-linecap:round;stroke-linejoin:round;stroke-dasharray:none;stroke-opacity:0.0522648;paint-order:fill markers stroke"
       id="path5887"
       d="m -106.5401,40.718052 c 7.990529,0.941015 10.411576,-1.148016 14.285168,4.627553 0.627628,0.935802 1.217577,2.051352 1.156224,3.176464 -0.215012,3.942991 -3.053016,1.862295 -4.792351,4.639258 -0.520231,0.830583 0.148194,1.954502 0.22229,2.931753 -2.068891,0.919556 -5.378091,1.940575 -6.605481,4.207633 -0.45176,0.834437 0.20815,1.931704 -0.0446,2.846295 -0.11017,0.398637 -0.59499,0.591211 -0.95947,0.786675 -0.92504,0.496078 -2.10295,0.567317 -2.88039,1.272566 -0.50068,0.4542 -0.42851,1.282309 -0.64276,1.923463 0.19839,0.661122 0.63268,1.29414 0.59516,1.983364 -0.0624,1.146651 -1.35409,2.265362 -2.20146,2.787933 -0.55483,0.342154 -1.30339,0.35727 -1.78687,0.79447 -0.18751,0.169561 -0.0212,0.520467 0.0736,0.754832 0.36496,0.902518 0.86069,1.74647 1.29104,2.619703 1.60152,2.943609 1.76564,1.936711 0.824,5.141735 -0.21765,0.740836 -0.75519,1.389939 -0.8449,2.156857 -0.0333,0.284885 0.329,0.470686 0.51168,0.691814 0.0359,0.04348 0.15658,0.149786 0.13925,0.09612 -0.23484,-0.727173 -0.53452,-1.431782 -0.80179,-2.147673 -0.23617,0.703318 -1.01023,2.772132 -0.51545,3.178037 0.54128,0.444056 1.41355,-1.321035 1.92419,-0.842057 0.49235,0.461817 -1.28745,1.292405 -0.87464,1.826519 6.84371,8.854855 3.03415,-2.872515 5.34461,6.479921 -1.20403,8.970163 -2.1429,4.087661 4.260689,11.568333 0.12617,0.14739 -0.686908,-0.32678 -0.550621,-0.18869 0.373731,0.37867 0.777887,1.07983 1.290884,0.93875 1.241561,-0.34146 5.130727,-3.46917 6.299903,-4.37029 1.626387,-0.2645 3.479027,0.0752 4.879161,-0.793495 2.113819,-1.311566 3.378743,-3.653552 5.132118,-5.418238 1.343003,-1.351663 2.566273,-2.873195 4.153555,-3.927324 2.796475,-1.857168 8.360057,-3.186602 11.500751,-3.128171 2.806014,0.05221 5.543362,0.881422 8.315041,1.322133 3.082155,2.277034 5.418765,6.648678 9.246465,6.8311 3.620392,0.172543 6.02297,-4.036039 9.096619,-5.956898 2.234702,-1.396563 4.359918,-3.056848 6.823498,-3.99229 1.254337,-0.476282 2.778681,-0.627729 4.023172,-0.126283 4.170183,1.680303 7.895688,8.712039 11.81418,6.507668 4.036899,-2.270985 0.815099,-9.227746 1.222648,-13.841619 -5.352103,-3.899215 -0.198102,-1.182589 -4.694812,-1.400373 -1.03551,-0.05015 -2.25367,-0.06404 -3.013519,-0.769321 -0.65726,-0.610061 -0.811821,-1.736214 -0.632473,-2.614848 0.362722,-1.777008 3.493762,-4.246055 4.536678,-5.210037 0.677005,-0.879004 2.271892,-1.553978 2.031018,-2.637013 -0.293405,-1.319241 -2.29261,-1.496779 -3.177572,-2.518216 -3.117286,-3.59802 0.119637,-1.235758 -0.784765,-4.833805 -1.762548,-7.012075 -3.16602,0.289507 -0.327512,-7.746642 -3.918004,-3.971765 -3.896478,-3.551099 -6.745019,-7.737491 -0.794364,-1.167451 -1.572019,-2.351114 -2.244156,-3.592962 -0.368403,-0.68066 -0.328682,-1.597533 -0.866426,-2.154174 -0.29736,-0.307809 -0.867249,0.03561 -1.282049,-0.0698 -0.237067,-0.06024 -0.405474,-0.273701 -0.608211,-0.410551 -1.897835,-0.06149 -3.360203,0.01933 -5.217517,-0.619444 -1.002842,-0.344899 -1.795725,-1.398988 -2.856217,-1.401384 -2.772204,-0.0063 -5.343996,4.444491 -6.888959,5.354921 -1.822529,1.073997 -4.029427,1.289977 -6.044141,1.934966 -1.679623,-0.305535 -3.378883,-0.51795 -5.038868,-0.916604 -1.254167,-0.301193 -2.992747,-0.09069 -3.685606,-1.178619 -0.926309,-3.618142 -2.401438,-10.821142 -4.602078,-14.178883 -1.440254,-2.197545 -2.958957,-6.764228 -5.385252,-5.755945 -7.747811,3.219718 -12.925749,10.700731 -19.388624,16.051097 -6.233909,33.910994 41.723478,42.727072 47.957384,8.816078 v 0 c -5.812874,5.544091 -10.077465,13.416715 -17.438623,16.632271 -2.552536,1.11502 -3.657121,-4.398944 -4.461288,-7.065782 -0.882483,-2.926546 0.916273,-11.436369 3.140017,-13.464318 2.1889,-1.996173 6.702922,5.018566 8.749466,1.559096 1.084559,1.901756 2.346804,3.712651 3.253679,5.705267 0.764236,1.679199 1.184516,3.494932 1.734921,5.255845 0.384659,1.230633 0.421227,2.602805 1.069766,3.717175 0.17213,0.295766 0.273269,-0.809647 0.615262,-0.821832 1.046869,-0.0373 1.056931,2.926488 1.64533,2.677471 2.436275,1.700891 1.819687,1.854709 4.603686,1.833516 0.686692,-0.0052 1.480688,0.163081 2.047917,-0.223986 0.6432,-0.438904 0.75342,-1.367386 1.2093,-1.998665 0.487624,-0.675235 1.546936,-1.078452 1.612479,-1.908768 0.03833,-0.485535 -0.974074,-0.0059 -1.461111,-0.0089 8.996706,-0.47484 3.779628,-1.265793 2.66896,1.841226 -1.298477,3.632407 2.613973,1.62799 -0.458544,5.292546 -0.924054,1.102111 -2.869205,1.211042 -3.521829,2.492687 -0.314102,0.616847 1.031486,0.923404 1.547231,1.385107 1.023143,0.661059 2.254004,1.078248 3.069428,1.983179 1.552864,1.72331 1.227929,3.843679 0.06576,5.651767 -1.100087,1.711507 -2.961841,2.870832 -3.963485,4.641752 -5.348335,9.455938 1.506347,1.94759 -3.230107,6.74815 3.292673,-9.083701 3.412807,-19.615954 13.141848,-1.903727 0.631841,1.150302 -2.401903,1.394597 -3.711784,1.313183 -2.47148,-0.153615 -4.702836,-2.314332 -7.15759,-1.988768 -6.39717,0.848432 -11.140792,7.426175 -18.009915,7.101806 -2.788639,-1.580938 -5.233333,-4.062545 -8.365921,-4.742815 -2.200619,-0.477885 -4.343806,1.679882 -6.588147,1.495399 -3.570621,-0.2935 -5.946994,-3.425135 -6.908074,-6.470603 -0.468697,-1.485207 -0.735371,-3.11359 -0.471103,-4.648411 0.225156,-1.307664 1.250664,-2.340629 1.875995,-3.510944 0.132196,-1.190305 -0.04043,-2.455873 0.396589,-3.570915 0.511302,-1.30457 1.335565,-2.524585 2.364993,-3.47517 0.251717,-0.232439 1.236668,0.267674 0.934218,0.428646 -0.391944,0.208606 -0.874972,-0.151555 -1.312458,-0.227335 1.058472,2.120733 2.116944,4.241467 3.175415,6.3622 0.308689,1.480127 -0.614874,2.960775 -0.922311,4.441164 -0.14761,0.618299 -0.99191,1.534593 -0.44283,1.854901 1.218118,0.710588 2.838958,0.0445 4.216481,0.346456 0.327244,0.07173 -1.121942,0.650023 -0.933154,0.373269 0.667949,-0.979181 2.207718,-1.422988 2.441845,-2.58494 0.202033,-1.002662 -3.850748,2.53383 -1.375582,0.43601 0.02669,-1.374913 0.574934,-2.841699 0.08005,-4.124738 -0.263006,-0.681876 -1.405811,-0.46513 -2.009371,-0.877247 -0.196112,-0.133909 -0.01421,-0.675198 -0.251525,-0.666528 -0.788317,0.02881 -1.494648,0.5051 -2.241972,0.757648 0.157756,0.100975 0.490216,0.116384 0.47327,0.302921 -0.02032,0.223692 -0.358457,0.270764 -0.537685,0.406146 0.226876,0.133781 1.925836,1.298959 0.675789,-1.055312 -0.302514,-0.569738 -1.153439,-0.637381 -1.572799,-1.127538 -0.234168,-0.2737 -0.112013,-0.726111 -0.283926,-1.042643 -1.010465,-1.8605 -0.728893,-0.06394 -0.845771,-1.718003 -0.607856,-0.854692 -1.191575,-1.726465 -1.804466,-2.577555 -0.603562,-0.838131 -1.260767,-1.637953 -1.839093,-2.493693 -0.744528,-1.101666 -0.200143,-1.163687 -1.483152,-2.286338 -1.098579,-0.961274 -2.350221,-1.732093 -3.525332,-2.598139 0.113851,-0.882229 0.497536,-1.770925 0.341553,-2.646687 -0.665078,-3.734043 -2.511302,-2.180804 -1.058657,-6.16516 1.170039,-3.209213 3.273922,-4.095266 6.366129,-5.390297 3.100777,-1.298621 6.32508,-2.279976 9.487622,-3.419963 0,-26.010031 -36.783741,-26.010031 -36.783741,0 z" />
  </g>
  <g
     inkscape:groupmode="layer"
     id="layer2"
     inkscape:label="JumpPad">
    <path
       style="fill:none;fill-opacity:1;stroke:#fffffb;stroke-width:6.00001;stroke-linecap:round;stroke-linejoin:round;stroke-dasharray:none;stroke-opacity:1;paint-order:fill markers stroke"
       d="M -63.165698,75.1489 -20.716723,44.68313"
       id="path4850" />
    <path
       style="fill:none;fill-opacity:1;stroke:#fffffb;stroke-width:6.76509;stroke-linecap:round;stroke-linejoin:round;stroke-dasharray:none;stroke-opacity:1;paint-order:fill markers stroke"
       d="M 6.6524066,55.195316 H 59.010041"
       id="path2670" />
    <path
       style="fill:none;fill-opacity:1;stroke:#fffffb;stroke-width:5.53688;stroke-linecap:round;stroke-linejoin:round;stroke-dasharray:none;stroke-opacity:1;paint-order:fill markers stroke"
       d="M 13.670659,46.46262 C 21.715016,42.529512 32.368468,35.768866 39.076423,29.810517 46.445188,23.663854 49.287065,21.206226 54.436266,14.22499"
       id="path1792"
       sodipodi:nodetypes="ccc" />
  </g>
</svg>
