<?xml version="1.0" encoding="UTF-8" standalone="no"?>
<!-- Created with Inkscape (http://www.inkscape.org/) -->

<svg
   width="250"
   height="250"
   viewBox="0 0 66.145833 66.145831"
   version="1.1"
   id="svg5"
   inkscape:version="1.2.2 (732a01da63, 2022-12-09)"
   sodipodi:docname="UnSignedVelocityLogo.svg"
   inkscape:export-filename="UnSignedVelocityLogo.png"
   inkscape:export-xdpi="96"
   inkscape:export-ydpi="96"
   xmlns:inkscape="http://www.inkscape.org/namespaces/inkscape"
   xmlns:sodipodi="http://sodipodi.sourceforge.net/DTD/sodipodi-0.dtd"
   xmlns:xlink="http://www.w3.org/1999/xlink"
   xmlns="http://www.w3.org/2000/svg"
   xmlns:svg="http://www.w3.org/2000/svg">
  <sodipodi:namedview
     id="namedview7"
     pagecolor="#ffffff"
     bordercolor="#000000"
     borderopacity="0.25"
     inkscape:showpageshadow="2"
     inkscape:pageopacity="0.0"
     inkscape:pagecheckerboard="0"
     inkscape:deskcolor="#d1d1d1"
     inkscape:document-units="mm"
     showgrid="false"
     inkscape:lockguides="true"
     inkscape:zoom="1.3026914"
     inkscape:cx="61.411319"
     inkscape:cy="138.94311"
     inkscape:window-width="1366"
     inkscape:window-height="697"
     inkscape:window-x="-8"
     inkscape:window-y="-8"
     inkscape:window-maximized="1"
     inkscape:current-layer="layer1">
    <sodipodi:guide
       position="0,66.145865"
       orientation="0,793.70079"
       id="guide182"
       inkscape:locked="true" />
    <sodipodi:guide
       position="209.99999,66.145865"
       orientation="1122.5197,0"
       id="guide184"
       inkscape:locked="true" />
    <sodipodi:guide
       position="209.99999,-230.85417"
       orientation="0,-793.70079"
       id="guide186"
       inkscape:locked="true" />
    <sodipodi:guide
       position="0,-230.85417"
       orientation="-1122.5197,0"
       id="guide188"
       inkscape:locked="true" />
    <sodipodi:guide
       position="0,66.145832"
       orientation="0,250"
       id="guide190"
       inkscape:locked="true" />
    <sodipodi:guide
       position="66.145832,66.145832"
       orientation="250,0"
       id="guide192"
       inkscape:locked="true" />
    <sodipodi:guide
       position="66.145832,0"
       orientation="0,-250"
       id="guide194"
       inkscape:locked="true" />
    <sodipodi:guide
       position="0,0"
       orientation="-250,0"
       id="guide196"
       inkscape:locked="true" />
  </sodipodi:namedview>
  <defs
     id="defs2">
    <linearGradient
       inkscape:collect="always"
       id="linearGradient4678">
      <stop
         style="stop-color:#706d30;stop-opacity:1;"
         offset="0"
         id="stop4674" />
      <stop
         style="stop-color:#2bf7ff;stop-opacity:1;"
         offset="1"
         id="stop4676" />
    </linearGradient>
    <linearGradient
       inkscape:collect="always"
       id="linearGradient4672">
      <stop
         style="stop-color:#475142;stop-opacity:1;"
         offset="0"
         id="stop4668" />
      <stop
         style="stop-color:#ffffff;stop-opacity:0.63559324;"
         offset="1"
         id="stop4670" />
    </linearGradient>
    <linearGradient
       inkscape:collect="always"
       id="linearGradient4602">
      <stop
         style="stop-color:#a7ab97;stop-opacity:1;"
         offset="0"
         id="stop4598" />
      <stop
         style="stop-color:#a7aeff;stop-opacity:1;"
         offset="1"
         id="stop4600" />
    </linearGradient>
    <linearGradient
       inkscape:collect="always"
       id="linearGradient4546">
      <stop
         style="stop-color:#10312a;stop-opacity:1;"
         offset="0"
         id="stop4542" />
      <stop
         style="stop-color:#462b00;stop-opacity:0.07241379;"
         offset="1"
         id="stop4544" />
    </linearGradient>
    <linearGradient
       inkscape:collect="always"
       id="linearGradient4229">
      <stop
         style="stop-color:#5bbfcd;stop-opacity:0.13448276;"
         offset="0"
         id="stop4225" />
      <stop
         style="stop-color:#5bbfcd;stop-opacity:0;"
         offset="1"
         id="stop4227" />
    </linearGradient>
    <linearGradient
       inkscape:collect="always"
       id="linearGradient991">
      <stop
         style="stop-color:#210813;stop-opacity:1;"
         offset="0"
         id="stop987" />
      <stop
         style="stop-color:#260004;stop-opacity:1;"
         offset="1"
         id="stop989" />
    </linearGradient>
    <linearGradient
       inkscape:collect="always"
       xlink:href="#linearGradient991"
       id="linearGradient993"
       x1="-4.0212765"
       y1="33.319147"
       x2="71.808512"
       y2="33.319147"
       gradientUnits="userSpaceOnUse" />
    <linearGradient
       inkscape:collect="always"
       xlink:href="#linearGradient4229"
       id="linearGradient4231"
       x1="-41.743885"
       y1="2.4850929"
       x2="52.664715"
       y2="62.80732"
       gradientUnits="userSpaceOnUse"
       gradientTransform="matrix(1.0798002,0,0,1.0798002,-5.1254861,-0.11853371)" />
    <radialGradient
       inkscape:collect="always"
       xlink:href="#linearGradient4546"
       id="radialGradient4548"
       cx="-153.85703"
       cy="48.127365"
       fx="-153.85703"
       fy="48.127365"
       r="9.54231"
       gradientTransform="matrix(-0.00664424,-1.3000316,0.88555684,-0.00452593,-197.68127,-153.81131)"
       gradientUnits="userSpaceOnUse" />
    <linearGradient
       inkscape:collect="always"
       xlink:href="#linearGradient4602"
       id="linearGradient4606"
       x1="-169.93851"
       y1="28.51112"
       x2="-139.73761"
       y2="-2.8686249"
       gradientUnits="userSpaceOnUse"
       gradientTransform="matrix(1.0251416,0,0,1.0251416,3.6613085,-0.44502594)" />
    <radialGradient
       inkscape:collect="always"
       xlink:href="#linearGradient4672"
       id="radialGradient4548-5"
       cx="-153.85703"
       cy="48.127365"
       fx="-153.85703"
       fy="48.127365"
       r="9.5423098"
       gradientTransform="matrix(-0.00664424,-1.3000316,0.88555684,-0.00452593,-271.53587,-192.97419)"
       gradientUnits="userSpaceOnUse" />
    <linearGradient
       inkscape:collect="always"
       xlink:href="#linearGradient4678"
       id="linearGradient4660"
       gradientUnits="userSpaceOnUse"
       gradientTransform="matrix(1.0251416,0,0,1.0251416,-70.193295,-39.607905)"
       x1="-169.93851"
       y1="28.51112"
       x2="-139.73761"
       y2="-2.8686249" />
  </defs>
  <g
     inkscape:label="Capa 1"
     inkscape:groupmode="layer"
     id="layer1">
    <rect
       style="fill:url(#linearGradient993);stroke-width:3.517;stroke-linecap:round;stroke-linejoin:round;stroke-miterlimit:6.3;paint-order:stroke fill markers;fill-opacity:1"
       id="rect300"
       width="75.829788"
       height="72.095741"
       x="-4.0212765"
       y="-2.7287235" />
    <path
       class="b"
       d="M 56.371989,60.61227 5.9042496,10.144529 A 3.946607,3.946607 0 1 1 11.485594,4.563185 l 30.155162,30.155161 a 3.9506219,3.9506219 0 0 0 5.584183,-5.584184 L 27.295618,9.2048412 A 3.9466078,3.9466078 0 1 1 32.876966,3.6234968 L 63.071871,33.818405 a 3.9506219,3.9506219 0 0 0 5.584183,-5.584186 L 6.1796245,-34.242211 2.7189648,-11.806112 a 4.7616234,4.7616234 0 0 1 -3.38968962,3.8495952 L -34.760648,1.843485 a 4.71746,4.71746 0 0 1 -0.965239,0.170337 l 60.26774,60.267738 a 3.946607,3.946607 0 1 0 5.581345,-5.581344 L 14.926382,41.5034 a 3.9506219,3.9506219 0 1 1 5.584183,-5.584185 l 30.277239,30.277239 a 3.9506219,3.9506219 0 1 0 5.584185,-5.584184 z"
       id="path913"
       fill="#00a1c2"
       fill-opacity="1"
       style="fill:url(#linearGradient4231);fill-opacity:1;stroke-width:0.401485" />
    <path
       id="path4540"
       style="fill:url(#linearGradient4606);stroke-width:3.60542;stroke-linecap:round;stroke-linejoin:round;stroke-miterlimit:6.3;paint-order:stroke fill markers"
       inkscape:label="path4540"
       d="m -145.62767,9.4192362 c 0,12.3059568 -1.67009,23.0446698 -4.14928,28.7568098 -2.75047,-0.05641 -2.8141,-0.110138 -4.30473,-0.110135 -1.50781,3e-6 -0.80889,0.268242 -3.92783,0.01361 -1.9354,-5.932087 -4.10767,-16.423303 -4.10767,-28.6602848 0,-18.2951301 3.69131,-33.1262612 8.24476,-33.1262512 4.55345,1.3e-5 8.24475,14.8311368 8.24475,33.1262512 z"
       sodipodi:nodetypes="scccsss" />
    <path
       style="fill:url(#radialGradient4548);fill-opacity:1;stroke-width:3.517;stroke-linecap:round;stroke-linejoin:round;stroke-miterlimit:6.3;paint-order:stroke fill markers"
       d="m -164.03877,46.385807 c 0,0 6.37555,10.609616 8.4743,14.244763 l 0.19142,-11.678153 c 0,0 -4.55954,-7.209352 0.99304,-7.394492 5.22728,-0.174293 0.93682,7.42206 0.93682,7.42206 l -0.20386,11.691085 8.6929,-14.569353 -4.6454,-8.090542 -8.58904,0.02819 z"
       id="path4413"
       sodipodi:nodetypes="cccscccccc" />
    <g
       id="g4666"
       transform="matrix(0.50076586,0.48881141,-0.48881141,0.50076586,137.97116,154.77168)">
      <path
         id="path4540-3"
         style="fill:url(#linearGradient4660);stroke-width:3.60542;stroke-linecap:round;stroke-linejoin:round;stroke-miterlimit:6.3;paint-order:stroke fill markers"
         inkscape:label="path4540"
         d="m -219.48227,-29.743643 c 0,12.305957 -1.67009,23.0446701 -4.14928,28.75681008 -2.75047,-0.05641 -2.8141,-0.11013798 -4.30473,-0.11013498 -1.50781,3e-6 -0.80889,0.26824198 -3.92783,0.01361 -1.9354,-5.932087 -4.10767,-16.4233031 -4.10767,-28.6602851 0,-18.29513 3.69131,-33.126261 8.24476,-33.126251 4.55345,1.3e-5 8.24475,14.831137 8.24475,33.126251 z"
         sodipodi:nodetypes="scccsss" />
      <path
         style="fill:url(#radialGradient4548-5);fill-opacity:1;stroke-width:3.517;stroke-linecap:round;stroke-linejoin:round;stroke-miterlimit:6.3;paint-order:stroke fill markers"
         d="m -237.89337,7.2229281 c 0,0 6.37555,10.6096159 8.4743,14.2447629 l 0.19142,-11.6781529 c 0,0 -4.55954,-7.209352 0.99304,-7.394492 5.22728,-0.174293 0.93682,7.42206 0.93682,7.42206 l -0.20386,11.6910849 8.6929,-14.5693529 -4.6454,-8.090542 -8.58904,0.02819 z"
         id="path4413-1"
         sodipodi:nodetypes="cccscccccc" />
      <circle
         style="fill:none;fill-opacity:1;stroke:#b80018;stroke-width:5.67136;stroke-linecap:round;stroke-linejoin:round;stroke-miterlimit:6.3;stroke-dasharray:none;stroke-opacity:1;paint-order:stroke fill markers"
         id="path4734"
         cx="-149.11493"
         cy="-174.38474"
         transform="rotate(-44.30788)"
         r="37.272083" />
      <rect
         style="fill:none;fill-opacity:1;stroke:#b80018;stroke-width:5.71602;stroke-linecap:round;stroke-linejoin:round;stroke-miterlimit:6.3;stroke-dasharray:none;stroke-opacity:1;paint-order:stroke fill markers"
         id="rect4849"
         width="93.128349"
         height="3.4063489"
         x="-275.25369"
         y="-20.475294"
         transform="rotate(0.69212)"
         ry="1.7031745"
         rx="0.58047634" />
    </g>
    <path
       style="fill:#000000;fill-opacity:1;stroke-width:3.517;stroke-linecap:round;stroke-linejoin:round;stroke-miterlimit:6.3;paint-order:stroke fill markers"
       d="m -214.91465,40.129791 c 0,0 6.37555,10.609616 8.4743,14.244763 l 0.19142,-11.678153 c 0,0 -4.55954,-7.209352 0.99304,-7.394492 5.22728,-0.174293 0.93682,7.42206 0.93682,7.42206 l -0.20386,11.691085 8.6929,-14.569353 -4.6454,-8.090542 -8.58904,0.02819 z"
       id="path4413-7"
       sodipodi:nodetypes="cccscccccc" />
  </g>
</svg>
